<mxfile host="app.diagrams.net" agent="Mozilla/5.0 (X11; Ubuntu; Linux x86_64; rv:130.0) Gecko/20100101 Firefox/130.0" version="24.7.16">
  <diagram name="Page-1" id="psS7wmOHLbgppXE1PZr3">
    <mxGraphModel dx="2074" dy="1126" grid="1" gridSize="10" guides="1" tooltips="1" connect="1" arrows="1" fold="1" page="1" pageScale="1" pageWidth="850" pageHeight="1100" math="0" shadow="0">
      <root>
        <mxCell id="0" />
        <mxCell id="1" parent="0" />
        <mxCell id="yvPCApH2F3Dqxlk0UL5A-6" value="User" style="swimlane;fontStyle=0;childLayout=stackLayout;horizontal=1;startSize=26;fillColor=none;horizontalStack=0;resizeParent=1;resizeParentMax=0;resizeLast=0;collapsible=1;marginBottom=0;whiteSpace=wrap;html=1;fontSize=18;" vertex="1" parent="1">
          <mxGeometry x="160" y="246" width="160" height="130" as="geometry" />
        </mxCell>
        <mxCell id="yvPCApH2F3Dqxlk0UL5A-7" value="name: String" style="text;strokeColor=none;fillColor=none;align=left;verticalAlign=top;spacingLeft=4;spacingRight=4;overflow=hidden;rotatable=0;points=[[0,0.5],[1,0.5]];portConstraint=eastwest;whiteSpace=wrap;html=1;fontSize=18;" vertex="1" parent="yvPCApH2F3Dqxlk0UL5A-6">
          <mxGeometry y="26" width="160" height="26" as="geometry" />
        </mxCell>
        <mxCell id="yvPCApH2F3Dqxlk0UL5A-10" value="emailAddress: String" style="text;strokeColor=none;fillColor=none;align=left;verticalAlign=top;spacingLeft=4;spacingRight=4;overflow=hidden;rotatable=0;points=[[0,0.5],[1,0.5]];portConstraint=eastwest;whiteSpace=wrap;html=1;fontSize=18;" vertex="1" parent="yvPCApH2F3Dqxlk0UL5A-6">
          <mxGeometry y="52" width="160" height="26" as="geometry" />
        </mxCell>
        <mxCell id="yvPCApH2F3Dqxlk0UL5A-8" value="password: String" style="text;strokeColor=none;fillColor=none;align=left;verticalAlign=top;spacingLeft=4;spacingRight=4;overflow=hidden;rotatable=0;points=[[0,0.5],[1,0.5]];portConstraint=eastwest;whiteSpace=wrap;html=1;fontSize=18;" vertex="1" parent="yvPCApH2F3Dqxlk0UL5A-6">
          <mxGeometry y="78" width="160" height="26" as="geometry" />
        </mxCell>
        <mxCell id="yvPCApH2F3Dqxlk0UL5A-9" value="&lt;div style=&quot;font-size: 18px;&quot;&gt;creationDate: Date&lt;/div&gt;" style="text;strokeColor=none;fillColor=none;align=left;verticalAlign=top;spacingLeft=4;spacingRight=4;overflow=hidden;rotatable=0;points=[[0,0.5],[1,0.5]];portConstraint=eastwest;whiteSpace=wrap;html=1;fontSize=18;" vertex="1" parent="yvPCApH2F3Dqxlk0UL5A-6">
          <mxGeometry y="104" width="160" height="26" as="geometry" />
        </mxCell>
        <mxCell id="yvPCApH2F3Dqxlk0UL5A-11" value="Event" style="swimlane;fontStyle=0;childLayout=stackLayout;horizontal=1;startSize=26;fillColor=none;horizontalStack=0;resizeParent=1;resizeParentMax=0;resizeLast=0;collapsible=1;marginBottom=0;whiteSpace=wrap;html=1;fontSize=18;" vertex="1" parent="1">
          <mxGeometry x="538" y="220" width="210" height="182" as="geometry" />
        </mxCell>
        <mxCell id="yvPCApH2F3Dqxlk0UL5A-12" value="name: String" style="text;strokeColor=none;fillColor=none;align=left;verticalAlign=top;spacingLeft=4;spacingRight=4;overflow=hidden;rotatable=0;points=[[0,0.5],[1,0.5]];portConstraint=eastwest;whiteSpace=wrap;html=1;fontSize=18;" vertex="1" parent="yvPCApH2F3Dqxlk0UL5A-11">
          <mxGeometry y="26" width="210" height="26" as="geometry" />
        </mxCell>
        <mxCell id="yvPCApH2F3Dqxlk0UL5A-13" value="description: String" style="text;strokeColor=none;fillColor=none;align=left;verticalAlign=top;spacingLeft=4;spacingRight=4;overflow=hidden;rotatable=0;points=[[0,0.5],[1,0.5]];portConstraint=eastwest;whiteSpace=wrap;html=1;fontSize=18;" vertex="1" parent="yvPCApH2F3Dqxlk0UL5A-11">
          <mxGeometry y="52" width="210" height="26" as="geometry" />
        </mxCell>
        <mxCell id="yvPCApH2F3Dqxlk0UL5A-14" value="date: Date" style="text;strokeColor=none;fillColor=none;align=left;verticalAlign=top;spacingLeft=4;spacingRight=4;overflow=hidden;rotatable=0;points=[[0,0.5],[1,0.5]];portConstraint=eastwest;whiteSpace=wrap;html=1;fontSize=18;" vertex="1" parent="yvPCApH2F3Dqxlk0UL5A-11">
          <mxGeometry y="78" width="210" height="26" as="geometry" />
        </mxCell>
        <mxCell id="yvPCApH2F3Dqxlk0UL5A-15" value="startTime: Time" style="text;strokeColor=none;fillColor=none;align=left;verticalAlign=top;spacingLeft=4;spacingRight=4;overflow=hidden;rotatable=0;points=[[0,0.5],[1,0.5]];portConstraint=eastwest;whiteSpace=wrap;html=1;fontSize=18;" vertex="1" parent="yvPCApH2F3Dqxlk0UL5A-11">
          <mxGeometry y="104" width="210" height="26" as="geometry" />
        </mxCell>
        <mxCell id="yvPCApH2F3Dqxlk0UL5A-16" value="endTime: Time" style="text;strokeColor=none;fillColor=none;align=left;verticalAlign=top;spacingLeft=4;spacingRight=4;overflow=hidden;rotatable=0;points=[[0,0.5],[1,0.5]];portConstraint=eastwest;whiteSpace=wrap;html=1;fontSize=18;" vertex="1" parent="yvPCApH2F3Dqxlk0UL5A-11">
          <mxGeometry y="130" width="210" height="26" as="geometry" />
        </mxCell>
        <mxCell id="yvPCApH2F3Dqxlk0UL5A-17" value="registrationLimit: Integer" style="text;strokeColor=none;fillColor=none;align=left;verticalAlign=top;spacingLeft=4;spacingRight=4;overflow=hidden;rotatable=0;points=[[0,0.5],[1,0.5]];portConstraint=eastwest;whiteSpace=wrap;html=1;fontSize=18;" vertex="1" parent="yvPCApH2F3Dqxlk0UL5A-11">
          <mxGeometry y="156" width="210" height="26" as="geometry" />
        </mxCell>
        <mxCell id="yvPCApH2F3Dqxlk0UL5A-18" style="edgeStyle=orthogonalEdgeStyle;rounded=0;orthogonalLoop=1;jettySize=auto;html=1;exitX=1;exitY=0.5;exitDx=0;exitDy=0;endArrow=none;endFill=0;fontSize=18;" edge="1" parent="1" source="yvPCApH2F3Dqxlk0UL5A-10" target="yvPCApH2F3Dqxlk0UL5A-11">
          <mxGeometry relative="1" as="geometry" />
        </mxCell>
        <mxCell id="yvPCApH2F3Dqxlk0UL5A-19" value="*" style="edgeLabel;html=1;align=center;verticalAlign=middle;resizable=0;points=[];fontSize=18;" vertex="1" connectable="0" parent="yvPCApH2F3Dqxlk0UL5A-18">
          <mxGeometry x="-0.8311" relative="1" as="geometry">
            <mxPoint x="-8" y="-15" as="offset" />
          </mxGeometry>
        </mxCell>
        <mxCell id="yvPCApH2F3Dqxlk0UL5A-20" value="*" style="edgeLabel;html=1;align=center;verticalAlign=middle;resizable=0;points=[];fontSize=18;" vertex="1" connectable="0" parent="yvPCApH2F3Dqxlk0UL5A-18">
          <mxGeometry x="-0.0311" y="3" relative="1" as="geometry">
            <mxPoint x="94" y="-12" as="offset" />
          </mxGeometry>
        </mxCell>
        <mxCell id="yvPCApH2F3Dqxlk0UL5A-21" value="registrants" style="edgeLabel;html=1;align=center;verticalAlign=middle;resizable=0;points=[];fontSize=18;" vertex="1" connectable="0" parent="yvPCApH2F3Dqxlk0UL5A-18">
          <mxGeometry x="-0.3067" y="-3" relative="1" as="geometry">
            <mxPoint x="-26" y="12" as="offset" />
          </mxGeometry>
        </mxCell>
        <mxCell id="yvPCApH2F3Dqxlk0UL5A-22" value="&lt;div style=&quot;font-size: 18px;&quot;&gt;events&lt;/div&gt;" style="edgeLabel;html=1;align=center;verticalAlign=middle;resizable=0;points=[];fontSize=18;" vertex="1" connectable="0" parent="yvPCApH2F3Dqxlk0UL5A-18">
          <mxGeometry x="0.0933" y="-3" relative="1" as="geometry">
            <mxPoint x="60" y="12" as="offset" />
          </mxGeometry>
        </mxCell>
        <mxCell id="yvPCApH2F3Dqxlk0UL5A-23" value="EventRegistrationSystem" style="swimlane;fontStyle=0;childLayout=stackLayout;horizontal=1;startSize=26;fillColor=none;horizontalStack=0;resizeParent=1;resizeParentMax=0;resizeLast=0;collapsible=1;marginBottom=0;whiteSpace=wrap;html=1;fontSize=18;" vertex="1" parent="1">
          <mxGeometry x="120" y="160" width="660" height="280" as="geometry" />
        </mxCell>
      </root>
    </mxGraphModel>
  </diagram>
</mxfile>
